<svg xmlns="http://www.w3.org/2000/svg" xmlns:xlink="http://www.w3.org/1999/xlink" width="500" zoomAndPan="magnify" viewBox="0 0 375 374.999991" height="500" preserveAspectRatio="xMidYMid meet" version="1.0"><defs><g/><clipPath id="b47e5c5256"><path d="M 122.296875 43.296875 L 249.796875 43.296875 L 249.796875 191.046875 L 122.296875 191.046875 Z M 122.296875 43.296875 " clip-rule="nonzero"/></clipPath><clipPath id="2ddd6031db"><path d="M 133 113 L 239 113 L 239 191.046875 L 133 191.046875 Z M 133 113 " clip-rule="nonzero"/></clipPath></defs><g clip-path="url(#b47e5c5256)"><path fill="#ffffff" d="M 218.40625 111.808594 L 213.394531 49.207031 C 213.394531 45.863281 211.359375 43.148438 208.847656 43.148438 L 165.101562 43.148438 C 162.59375 43.148438 160.554688 45.863281 160.554688 49.207031 L 154.652344 111.316406 C 135.476562 122.289062 122.5 142.90625 122.5 166.535156 C 122.5 189.980469 135.28125 210.449219 154.207031 221.488281 L 160.554688 288.265625 C 160.554688 291.613281 162.589844 294.324219 165.101562 294.324219 L 208.847656 294.324219 C 211.355469 294.324219 213.390625 291.613281 213.390625 288.265625 L 218.773438 221.042969 C 237.289062 209.902344 249.746094 189.671875 249.746094 166.535156 C 249.75 143.246094 237.128906 122.898438 218.40625 111.808594 Z M 219.386719 213.4375 C 209.980469 220.125 198.519531 224.105469 186.125 224.105469 C 174.007812 224.105469 162.769531 220.324219 153.484375 213.902344 C 138.449219 203.507812 128.5625 186.167969 128.5625 166.542969 C 128.5625 146.714844 138.636719 129.199219 153.9375 118.84375 C 163.132812 112.617188 174.207031 108.980469 186.125 108.980469 C 198.351562 108.980469 209.675781 112.839844 219.007812 119.363281 C 233.902344 129.78125 243.6875 147.027344 243.6875 166.542969 C 243.691406 185.886719 234.0625 202.996094 219.386719 213.4375 Z M 219.386719 213.4375 " fill-opacity="1" fill-rule="nonzero"/></g><g clip-path="url(#2ddd6031db)"><path fill="#ffffff" d="M 219.535156 125.890625 C 210.4375 118.402344 198.800781 113.898438 186.125 113.898438 C 173.71875 113.898438 162.320312 118.242188 153.308594 125.449219 C 141.246094 135.105469 133.488281 149.925781 133.488281 166.542969 C 133.488281 182.957031 141.046875 197.632812 152.859375 207.296875 C 161.9375 214.714844 173.515625 219.183594 186.125 219.183594 C 198.980469 219.183594 210.761719 214.539062 219.914062 206.855469 C 231.425781 197.191406 238.765625 182.714844 238.765625 166.542969 C 238.765625 150.183594 231.269531 135.554688 219.535156 125.890625 Z M 220.179688 203.542969 C 211.203125 211.808594 199.261719 216.90625 186.125 216.90625 C 173.21875 216.90625 161.46875 211.984375 152.546875 203.96875 C 142.273438 194.742188 135.757812 181.402344 135.757812 166.535156 C 135.757812 151.453125 142.460938 137.925781 153.003906 128.6875 C 161.867188 120.917969 173.441406 116.167969 186.125 116.167969 C 199.078125 116.167969 210.867188 121.125 219.796875 129.1875 C 230.019531 138.410156 236.492188 151.714844 236.492188 166.535156 C 236.492188 181.175781 230.179688 194.332031 220.179688 203.542969 Z M 220.179688 203.542969 " fill-opacity="1" fill-rule="nonzero"/></g><path fill="#ffffff" d="M 219.039062 145.90625 C 218.082031 144.527344 216.195312 144.179688 214.820312 145.136719 L 186.082031 164.980469 L 165.914062 151.25 C 164.53125 150.304688 162.648438 150.667969 161.703125 152.046875 C 160.761719 153.433594 161.121094 155.316406 162.503906 156.257812 L 180.832031 168.746094 L 184.386719 171.164062 C 184.460938 171.214844 184.539062 171.230469 184.613281 171.269531 C 184.699219 171.320312 184.777344 171.351562 184.867188 171.390625 C 185.261719 171.566406 185.675781 171.6875 186.09375 171.6875 L 186.121094 171.6875 C 186.382812 171.679688 186.644531 171.636719 186.898438 171.566406 C 186.980469 171.542969 187.058594 171.507812 187.140625 171.480469 C 187.332031 171.410156 187.507812 171.324219 187.679688 171.214844 C 187.726562 171.1875 187.773438 171.175781 187.816406 171.152344 L 191.304688 168.746094 L 218.261719 150.128906 C 219.640625 149.171875 219.988281 147.285156 219.039062 145.90625 Z M 219.039062 145.90625 " fill-opacity="1" fill-rule="nonzero"/><g fill="#ffffff" fill-opacity="1"><g transform="translate(-0.644086, 253.184307)"><g><path d="M 4.15625 0 L 4.15625 -47.734375 L 36.3125 -47.734375 L 36.3125 -39.421875 L 14.25 -39.421875 L 14.25 -28.046875 L 34.65625 -28.046875 L 34.65625 -19.71875 L 14.25 -19.71875 L 14.25 -8.328125 L 36.40625 -8.328125 L 36.40625 0 Z M 4.15625 0 "/></g></g></g><g fill="#ffffff" fill-opacity="1"><g transform="translate(39.567004, 253.184307)"><g><path d="M 26.265625 -23.546875 L 26.265625 -15.671875 L 4.5 -15.671875 L 4.5 -23.546875 Z M 26.265625 -23.546875 "/></g></g></g><g fill="#ffffff" fill-opacity="1"><g transform="translate(70.337228, 253.184307)"><g><path d="M 14.890625 0 L 1.234375 -47.734375 L 12.265625 -47.734375 L 20.15625 -14.5625 L 20.5625 -14.5625 L 29.28125 -47.734375 L 38.71875 -47.734375 L 47.40625 -14.5 L 47.828125 -14.5 L 55.734375 -47.734375 L 66.765625 -47.734375 L 53.09375 0 L 43.265625 0 L 34.171875 -31.21875 L 33.796875 -31.21875 L 24.734375 0 Z M 14.890625 0 "/></g></g></g><g fill="#ffffff" fill-opacity="1"><g transform="translate(138.334782, 253.184307)"><g><path d="M 12.375 0 L 1.5625 0 L 18.046875 -47.734375 L 31.046875 -47.734375 L 47.5 0 L 36.6875 0 L 33.140625 -10.890625 L 15.921875 -10.890625 Z M 18.484375 -18.765625 L 30.609375 -18.765625 L 24.734375 -36.828125 L 24.359375 -36.828125 Z M 18.484375 -18.765625 "/></g></g></g><g fill="#ffffff" fill-opacity="1"><g transform="translate(187.427294, 253.184307)"><g><path d="M 2.328125 -39.421875 L 2.328125 -47.734375 L 41.53125 -47.734375 L 41.53125 -39.421875 L 26.921875 -39.421875 L 26.921875 0 L 16.953125 0 L 16.953125 -39.421875 Z M 2.328125 -39.421875 "/></g></g></g><g fill="#ffffff" fill-opacity="1"><g transform="translate(231.298191, 253.184307)"><g><path d="M 46.265625 -31.03125 L 36.0625 -31.03125 C 35.675781 -33.65625 34.554688 -35.71875 32.703125 -37.21875 C 30.859375 -38.71875 28.550781 -39.46875 25.78125 -39.46875 C 22.082031 -39.46875 19.117188 -38.109375 16.890625 -35.390625 C 14.660156 -32.679688 13.546875 -28.84375 13.546875 -23.875 C 13.546875 -18.769531 14.664062 -14.894531 16.90625 -12.25 C 19.15625 -9.601562 22.085938 -8.28125 25.703125 -8.28125 C 28.398438 -8.28125 30.679688 -8.984375 32.546875 -10.390625 C 34.410156 -11.796875 35.582031 -13.769531 36.0625 -16.3125 L 46.265625 -16.265625 C 45.910156 -13.347656 44.867188 -10.597656 43.140625 -8.015625 C 41.421875 -5.441406 39.078125 -3.351562 36.109375 -1.75 C 33.148438 -0.144531 29.628906 0.65625 25.546875 0.65625 C 21.285156 0.65625 17.476562 -0.304688 14.125 -2.234375 C 10.78125 -4.160156 8.140625 -6.945312 6.203125 -10.59375 C 4.273438 -14.25 3.3125 -18.675781 3.3125 -23.875 C 3.3125 -29.070312 4.289062 -33.5 6.25 -37.15625 C 8.207031 -40.8125 10.863281 -43.597656 14.21875 -45.515625 C 17.570312 -47.429688 21.347656 -48.390625 25.546875 -48.390625 C 29.234375 -48.390625 32.554688 -47.707031 35.515625 -46.34375 C 38.472656 -44.988281 40.894531 -43.015625 42.78125 -40.421875 C 44.675781 -37.835938 45.835938 -34.707031 46.265625 -31.03125 Z M 46.265625 -31.03125 "/></g></g></g><g fill="#ffffff" fill-opacity="1"><g transform="translate(280.670413, 253.184307)"><g><path d="M 4.15625 0 L 4.15625 -47.734375 L 14.25 -47.734375 L 14.25 -28.046875 L 34.734375 -28.046875 L 34.734375 -47.734375 L 44.796875 -47.734375 L 44.796875 0 L 34.734375 0 L 34.734375 -19.71875 L 14.25 -19.71875 L 14.25 0 Z M 4.15625 0 "/></g></g></g><g fill="#ffffff" fill-opacity="1"><g transform="translate(329.646361, 253.184307)"><g><path d="M 30.046875 -34.015625 C 29.859375 -35.890625 29.050781 -37.347656 27.625 -38.390625 C 26.207031 -39.429688 24.296875 -39.953125 21.890625 -39.953125 C 19.421875 -39.953125 17.523438 -39.445312 16.203125 -38.4375 C 14.878906 -37.425781 14.21875 -36.148438 14.21875 -34.609375 C 14.1875 -32.898438 14.921875 -31.609375 16.421875 -30.734375 C 17.921875 -29.859375 19.703125 -29.175781 21.765625 -28.6875 L 26.0625 -27.671875 C 28.820312 -27.046875 31.28125 -26.140625 33.4375 -24.953125 C 35.59375 -23.773438 37.285156 -22.257812 38.515625 -20.40625 C 39.753906 -18.550781 40.375 -16.296875 40.375 -13.640625 C 40.351562 -9.273438 38.710938 -5.796875 35.453125 -3.203125 C 32.203125 -0.617188 27.664062 0.671875 21.84375 0.671875 C 16.039062 0.671875 11.414062 -0.644531 7.96875 -3.28125 C 4.519531 -5.925781 2.734375 -9.828125 2.609375 -14.984375 L 12.375 -14.984375 C 12.550781 -12.597656 13.492188 -10.800781 15.203125 -9.59375 C 16.921875 -8.382812 19.09375 -7.78125 21.71875 -7.78125 C 24.289062 -7.78125 26.335938 -8.320312 27.859375 -9.40625 C 29.390625 -10.5 30.164062 -11.914062 30.1875 -13.65625 C 30.164062 -15.269531 29.457031 -16.507812 28.0625 -17.375 C 26.664062 -18.25 24.671875 -19 22.078125 -19.625 L 16.875 -20.9375 C 12.851562 -21.894531 9.675781 -23.421875 7.34375 -25.515625 C 5.007812 -27.617188 3.851562 -30.425781 3.875 -33.9375 C 3.851562 -36.832031 4.625 -39.363281 6.1875 -41.53125 C 7.75 -43.695312 9.894531 -45.378906 12.625 -46.578125 C 15.363281 -47.785156 18.472656 -48.390625 21.953125 -48.390625 C 25.492188 -48.390625 28.585938 -47.78125 31.234375 -46.5625 C 33.890625 -45.351562 35.957031 -43.671875 37.4375 -41.515625 C 38.914062 -39.359375 39.675781 -36.859375 39.71875 -34.015625 Z M 30.046875 -34.015625 "/></g></g></g><g fill="#ffffff" fill-opacity="1"><g transform="translate(74.108141, 292.491993)"><g><path d="M 12.421875 -14.515625 L 12.421875 0 L 10.671875 0 L 2.796875 -12.15625 L 2.734375 -12.15625 L 2.734375 0 L 1.203125 0 L 1.203125 -14.515625 L 2.921875 -14.515625 L 10.84375 -2.328125 L 10.890625 -2.328125 L 10.890625 -14.515625 Z M 12.421875 -14.515625 "/></g></g></g><g fill="#ffffff" fill-opacity="1"><g transform="translate(92.33311, 292.491993)"><g><path d="M 2.734375 -1.375 L 10.71875 -1.375 L 10.71875 0 L 1.203125 0 L 1.203125 -14.515625 L 10.515625 -14.515625 L 10.515625 -13.140625 L 2.734375 -13.140625 L 2.734375 -8.109375 L 9.46875 -8.109375 L 9.46875 -6.84375 L 2.734375 -6.84375 Z M 2.734375 -1.375 "/></g></g></g><g fill="#ffffff" fill-opacity="1"><g transform="translate(108.256633, 292.491993)"><g><path d="M 11.75 -14.515625 L 13.421875 -14.515625 L 7.609375 0 L 6.28125 0 L 0.484375 -14.515625 L 2.140625 -14.515625 L 6.953125 -2.03125 Z M 11.75 -14.515625 "/></g></g></g><g fill="#ffffff" fill-opacity="1"><g transform="translate(126.73041, 292.491993)"><g><path d="M 2.734375 -1.375 L 10.71875 -1.375 L 10.71875 0 L 1.203125 0 L 1.203125 -14.515625 L 10.515625 -14.515625 L 10.515625 -13.140625 L 2.734375 -13.140625 L 2.734375 -8.109375 L 9.46875 -8.109375 L 9.46875 -6.84375 L 2.734375 -6.84375 Z M 2.734375 -1.375 "/></g></g></g><g fill="#ffffff" fill-opacity="1"><g transform="translate(142.653932, 292.491993)"><g><path d="M 11.6875 -2.421875 C 11.6875 -1.742188 11.722656 -1.21875 11.796875 -0.84375 C 11.867188 -0.476562 11.972656 -0.195312 12.109375 0 L 10.578125 0 C 10.429688 -0.195312 10.320312 -0.476562 10.25 -0.84375 C 10.1875 -1.21875 10.15625 -1.742188 10.15625 -2.421875 L 10.15625 -3.609375 C 10.15625 -4.253906 10.023438 -4.75 9.765625 -5.09375 C 9.515625 -5.445312 9.1875 -5.6875 8.78125 -5.8125 C 8.382812 -5.945312 7.953125 -6.015625 7.484375 -6.015625 L 2.734375 -6.015625 L 2.734375 0 L 1.203125 0 L 1.203125 -14.515625 L 6.828125 -14.515625 C 8.484375 -14.515625 9.710938 -14.144531 10.515625 -13.40625 C 11.316406 -12.664062 11.71875 -11.664062 11.71875 -10.40625 C 11.71875 -9.519531 11.507812 -8.765625 11.09375 -8.140625 C 10.675781 -7.523438 10.09375 -7.054688 9.34375 -6.734375 C 10.175781 -6.515625 10.773438 -6.160156 11.140625 -5.671875 C 11.503906 -5.179688 11.6875 -4.5 11.6875 -3.625 Z M 7.109375 -7.28125 C 8.023438 -7.28125 8.757812 -7.535156 9.3125 -8.046875 C 9.875 -8.554688 10.15625 -9.296875 10.15625 -10.265625 C 10.15625 -12.203125 9.035156 -13.171875 6.796875 -13.171875 L 2.734375 -13.171875 L 2.734375 -7.28125 Z M 7.109375 -7.28125 "/></g></g></g><g fill="#ffffff" fill-opacity="1"><g transform="translate(160.028829, 292.491993)"><g/></g></g><g fill="#ffffff" fill-opacity="1"><g transform="translate(170.271311, 292.491993)"><g><path d="M 11.359375 -14.515625 L 11.359375 -13.140625 L 6.734375 -13.140625 L 6.734375 0 L 5.203125 0 L 5.203125 -13.140625 L 0.578125 -13.140625 L 0.578125 -14.515625 Z M 11.359375 -14.515625 "/></g></g></g><g fill="#ffffff" fill-opacity="1"><g transform="translate(186.816865, 292.491993)"><g><path d="M 7.375 -14.703125 C 8.632812 -14.703125 9.75 -14.425781 10.71875 -13.875 C 11.695312 -13.320312 12.460938 -12.488281 13.015625 -11.375 C 13.566406 -10.269531 13.84375 -8.894531 13.84375 -7.25 C 13.84375 -5.625 13.566406 -4.257812 13.015625 -3.15625 C 12.460938 -2.050781 11.695312 -1.21875 10.71875 -0.65625 C 9.75 -0.09375 8.632812 0.1875 7.375 0.1875 C 6.125 0.1875 5.007812 -0.09375 4.03125 -0.65625 C 3.0625 -1.21875 2.296875 -2.050781 1.734375 -3.15625 C 1.171875 -4.257812 0.890625 -5.625 0.890625 -7.25 C 0.890625 -8.894531 1.171875 -10.269531 1.734375 -11.375 C 2.296875 -12.488281 3.0625 -13.320312 4.03125 -13.875 C 5.007812 -14.425781 6.125 -14.703125 7.375 -14.703125 Z M 7.375 -1.1875 C 8.832031 -1.1875 10.015625 -1.679688 10.921875 -2.671875 C 11.828125 -3.671875 12.28125 -5.195312 12.28125 -7.25 C 12.28125 -9.3125 11.828125 -10.835938 10.921875 -11.828125 C 10.015625 -12.828125 8.832031 -13.328125 7.375 -13.328125 C 5.914062 -13.328125 4.734375 -12.828125 3.828125 -11.828125 C 2.929688 -10.835938 2.484375 -9.3125 2.484375 -7.25 C 2.484375 -5.195312 2.929688 -3.671875 3.828125 -2.671875 C 4.734375 -1.679688 5.914062 -1.1875 7.375 -1.1875 Z M 7.375 -1.1875 "/></g></g></g><g fill="#ffffff" fill-opacity="1"><g transform="translate(206.161476, 292.491993)"><g><path d="M 7.375 -14.703125 C 8.632812 -14.703125 9.75 -14.425781 10.71875 -13.875 C 11.695312 -13.320312 12.460938 -12.488281 13.015625 -11.375 C 13.566406 -10.269531 13.84375 -8.894531 13.84375 -7.25 C 13.84375 -5.625 13.566406 -4.257812 13.015625 -3.15625 C 12.460938 -2.050781 11.695312 -1.21875 10.71875 -0.65625 C 9.75 -0.09375 8.632812 0.1875 7.375 0.1875 C 6.125 0.1875 5.007812 -0.09375 4.03125 -0.65625 C 3.0625 -1.21875 2.296875 -2.050781 1.734375 -3.15625 C 1.171875 -4.257812 0.890625 -5.625 0.890625 -7.25 C 0.890625 -8.894531 1.171875 -10.269531 1.734375 -11.375 C 2.296875 -12.488281 3.0625 -13.320312 4.03125 -13.875 C 5.007812 -14.425781 6.125 -14.703125 7.375 -14.703125 Z M 7.375 -1.1875 C 8.832031 -1.1875 10.015625 -1.679688 10.921875 -2.671875 C 11.828125 -3.671875 12.28125 -5.195312 12.28125 -7.25 C 12.28125 -9.3125 11.828125 -10.835938 10.921875 -11.828125 C 10.015625 -12.828125 8.832031 -13.328125 7.375 -13.328125 C 5.914062 -13.328125 4.734375 -12.828125 3.828125 -11.828125 C 2.929688 -10.835938 2.484375 -9.3125 2.484375 -7.25 C 2.484375 -5.195312 2.929688 -3.671875 3.828125 -2.671875 C 4.734375 -1.679688 5.914062 -1.1875 7.375 -1.1875 Z M 7.375 -1.1875 "/></g></g></g><g fill="#ffffff" fill-opacity="1"><g transform="translate(225.506088, 292.491993)"><g/></g></g><g fill="#ffffff" fill-opacity="1"><g transform="translate(235.74857, 292.491993)"><g><path d="M 2.734375 -1.375 L 10.265625 -1.375 L 10.265625 0 L 1.203125 0 L 1.203125 -14.515625 L 2.734375 -14.515625 Z M 2.734375 -1.375 "/></g></g></g><g fill="#ffffff" fill-opacity="1"><g transform="translate(251.278145, 292.491993)"><g><path d="M 11.859375 0 L 10.359375 -3.859375 L 3.734375 -3.859375 L 2.234375 0 L 0.578125 0 L 6.390625 -14.515625 L 7.71875 -14.515625 L 13.515625 0 Z M 4.1875 -5.03125 L 9.90625 -5.03125 L 7.046875 -12.484375 Z M 4.1875 -5.03125 "/></g></g></g><g fill="#ffffff" fill-opacity="1"><g transform="translate(269.959256, 292.491993)"><g><path d="M 11.359375 -14.515625 L 11.359375 -13.140625 L 6.734375 -13.140625 L 6.734375 0 L 5.203125 0 L 5.203125 -13.140625 L 0.578125 -13.140625 L 0.578125 -14.515625 Z M 11.359375 -14.515625 "/></g></g></g><g fill="#ffffff" fill-opacity="1"><g transform="translate(286.5048, 292.491993)"><g><path d="M 2.734375 -1.375 L 10.71875 -1.375 L 10.71875 0 L 1.203125 0 L 1.203125 -14.515625 L 10.515625 -14.515625 L 10.515625 -13.140625 L 2.734375 -13.140625 L 2.734375 -8.109375 L 9.46875 -8.109375 L 9.46875 -6.84375 L 2.734375 -6.84375 Z M 2.734375 -1.375 "/></g></g></g></svg>